<?xml version="1.0" encoding="utf-8"?>
<!-- Generator: Adobe Illustrator 16.0.0, SVG Export Plug-In . SVG Version: 6.00 Build 0)  -->
<!DOCTYPE svg PUBLIC "-//W3C//DTD SVG 1.1//EN" "http://www.w3.org/Graphics/SVG/1.1/DTD/svg11.dtd">
<svg version="1.1" id="Layer_1" xmlns="http://www.w3.org/2000/svg" xmlns:xlink="http://www.w3.org/1999/xlink" x="0px" y="0px"
	 width="1200px" height="1200px" viewBox="0 0 1200 1200" enable-background="new 0 0 1200 1200" xml:space="preserve">
<path fill="#9B5C8F" d="M131.729,257.729h936.074c59.242,0,107.197,47.954,107.197,107.197v357.313
	c0,59.243-47.955,107.196-107.197,107.196H732.115l46.077,112.836l-202.64-112.836H132.196
	c-59.238,0-107.193-47.953-107.193-107.196V364.926C24.531,306.155,72.481,257.729,131.729,257.729z"/>
<path fill="#FFFFFF" d="M90.486,355.434c6.545-8.886,16.359-13.558,29.451-14.491c23.845-1.874,37.401,9.344,40.672,33.654
	c14.492,97.705,30.385,180.452,47.213,248.234l102.377-194.939c9.353-17.767,21.041-27.114,35.064-28.049
	c20.57-1.4,33.188,11.686,38.332,39.267c11.689,62.172,26.648,115,44.41,159.877c12.156-118.737,32.727-204.287,61.709-257.11
	c7.008-13.09,17.295-19.635,30.854-20.574c10.754-0.93,20.568,2.34,29.449,9.354c8.882,7.012,13.559,15.893,14.492,26.646
	c0.467,8.414-0.934,15.426-4.672,22.438c-18.234,33.66-33.197,90.226-45.349,168.758c-11.686,76.201-15.895,135.575-13.09,178.116
	c0.938,11.679-0.935,21.967-5.606,30.852c-5.615,10.283-14.025,15.895-24.779,16.828c-12.154,0.935-24.773-4.672-36.93-17.295
	c-43.475-44.414-78.07-110.795-103.313-199.148c-30.39,59.837-52.827,104.714-67.319,134.632
	c-27.582,52.827-50.955,79.941-70.59,81.345c-12.623,0.934-23.373-9.82-32.722-32.254c-23.84-61.242-49.553-179.519-77.131-354.821
	C81.137,374.598,83.939,363.843,90.486,355.434L90.486,355.434z M1095.102,428.827c-16.827-29.451-41.605-47.213-74.795-54.229
	c-8.886-1.869-17.295-2.803-25.246-2.803c-44.877,0-81.341,23.373-109.856,70.123c-24.312,39.733-36.463,83.676-36.463,131.828
	c0,35.996,7.479,66.848,22.438,92.561c16.827,29.451,41.605,47.215,74.795,54.227c8.881,1.874,17.294,2.808,25.245,2.808
	c45.345,0,81.809-23.373,109.857-70.123c24.307-40.205,36.463-84.146,36.463-132.295
	C1118.007,484.458,1110.061,454.069,1095.102,428.827z M1036.2,558.319c-6.546,30.852-18.234,53.758-35.534,69.185
	c-13.552,12.155-26.176,17.295-37.859,14.959c-11.222-2.336-20.574-12.151-27.582-30.386c-5.615-14.491-8.414-28.983-8.414-42.541
	c0-11.686,0.936-23.373,3.271-34.123c4.209-19.168,12.155-37.869,24.773-55.631c15.431-22.911,31.791-32.254,48.619-28.984
	c11.223,2.336,20.574,12.156,27.582,30.385c5.61,14.492,8.413,28.984,8.413,42.541c0,12.156-0.935,23.841-3.27,34.591V558.319z
	 M802.458,428.827c-16.828-29.45-42.074-47.213-74.795-54.229c-8.881-1.869-17.295-2.803-25.246-2.803
	c-44.877,0-81.34,23.373-109.857,70.123c-24.307,39.733-36.463,83.676-36.463,131.828c0,35.996,7.48,66.848,22.439,92.561
	c16.828,29.451,41.606,47.215,74.795,54.227c8.885,1.874,17.294,2.808,25.246,2.808c45.344,0,81.807-23.373,109.855-70.123
	c24.313-40.205,36.463-84.146,36.463-132.295C824.896,484.458,817.417,454.069,802.458,428.827L802.458,428.827z M743.089,558.319
	c-6.545,30.852-18.233,53.758-35.528,69.185c-13.558,12.155-26.181,17.295-37.868,14.959c-11.218-2.336-20.565-12.151-27.582-30.386
	c-5.606-14.491-8.409-28.983-8.409-42.541c0-11.686,0.935-23.373,3.27-34.123c4.21-19.168,12.156-37.869,24.779-55.631
	c15.427-22.911,31.787-32.254,48.614-28.984c11.222,2.336,20.573,12.156,27.582,30.385c5.614,14.492,8.414,28.984,8.414,42.541
	c0.472,12.156-0.935,23.841-3.271,34.591V558.319z"/>
</svg>
